<svg id="Group_169" data-name="Group 169" xmlns="http://www.w3.org/2000/svg" width="140.679" height="104.149" viewBox="0 0 140.679 104.149">
  <path id="Path_155" data-name="Path 155" d="M-1244.422,403a30.52,30.52,0,0,1,10.067,1.644,11.66,11.66,0,0,0,1.665-6,11.732,11.732,0,0,0-11.732-11.732,11.731,11.731,0,0,0-11.731,11.732,11.661,11.661,0,0,0,1.664,6A30.521,30.521,0,0,1-1244.422,403Z" transform="translate(1314.761 -333.668)" fill="#f9f7f2"/>
  <g id="Group_168" data-name="Group 168" transform="translate(0 0)">
    <path id="Path_156" data-name="Path 156" d="M-1141.008,219.741l-.017.019a65.6,65.6,0,0,0-10.307,15.81,84.491,84.491,0,0,0-6.23,18.232c-.01.045-.03.086-.042.13a19.016,19.016,0,0,1,5.211,5.454c1.406-1.635,2.9-3.26,4.509-4.895a98.349,98.349,0,0,1,10.175-8.993,79.6,79.6,0,0,1,11.561-7.45,55.268,55.268,0,0,1,8.616-3.645,17.837,17.837,0,0,0-17.708-15.719,17.77,17.77,0,0,0-5.651.92C-1140.928,219.65-1140.968,219.7-1141.008,219.741Z" transform="translate(1238.742 -203.9)" fill="#d69956"/>
    <path id="Path_157" data-name="Path 157" d="M-1418.737,238.047a79.6,79.6,0,0,1,11.563,7.451A98.32,98.32,0,0,1-1397,254.492c1.61,1.635,3.1,3.26,4.509,4.895a19.015,19.015,0,0,1,5.228-5.466c-.009-.035-.024-.066-.031-.1a84.612,84.612,0,0,0-6.247-18.254,65.6,65.6,0,0,0-10.317-15.8c-.041-.045-.069-.1-.108-.145a17.767,17.767,0,0,0-5.677-.93,17.837,17.837,0,0,0-17.708,15.719A55.277,55.277,0,0,1-1418.737,238.047Z" transform="translate(1446.821 -203.9)" fill="#d69956"/>
    <path id="Path_158" data-name="Path 158" d="M-1281.489,182.394a92.409,92.409,0,0,1,5.642,18.712,18.979,18.979,0,0,1,4.1-.45,18.975,18.975,0,0,1,4.076.445,92.419,92.419,0,0,1,5.653-18.711,74.449,74.449,0,0,1,10.1-17.351,23.326,23.326,0,0,0-19.83-11.029,23.325,23.325,0,0,0-19.83,11.03A74.429,74.429,0,0,1-1281.489,182.394Z" transform="translate(1342.088 -154.011)" fill="#d69956"/>
    <path id="Path_159" data-name="Path 159" d="M-1461.1,348.482a19.083,19.083,0,0,1,.129-2.178,86.268,86.268,0,0,0-6.99-7.415,90.243,90.243,0,0,0-9.665-7.948,72.056,72.056,0,0,0-10.59-6.309,42.227,42.227,0,0,0-10.34-3.51,14.66,14.66,0,0,0-13.964,14.637q0,.067,0,.134a11.79,11.79,0,0,0,11.024,11.43,52.952,52.952,0,0,1,26.481,9.268,13.442,13.442,0,0,0,7.831,2.353,15.879,15.879,0,0,0,8.048-2.065A18.836,18.836,0,0,1-1461.1,348.482Z" transform="translate(1512.516 -282.917)" fill="#d69956"/>
    <path id="Path_160" data-name="Path 160" d="M-1091.255,321.121a42.239,42.239,0,0,0-10.341,3.51,72.192,72.192,0,0,0-10.589,6.309,90.3,90.3,0,0,0-9.666,7.948,86.234,86.234,0,0,0-6.99,7.415,19.055,19.055,0,0,1,.129,2.178,18.833,18.833,0,0,1-1.965,8.4,15.881,15.881,0,0,0,8.049,2.065,13.441,13.441,0,0,0,7.831-2.353,52.953,52.953,0,0,1,26.481-9.268,11.79,11.79,0,0,0,11.024-11.43q0-.067,0-.134A14.66,14.66,0,0,0-1091.255,321.121Z" transform="translate(1217.971 -282.917)" fill="#d69956"/>
  </g>
  <path id="Path_161" data-name="Path 161" d="M-1339.763,494.024c-17.717,0-21.473,12.141-39.988-1.259a42.369,42.369,0,0,0,39.988,26.705c19.809,0,33.851-12.572,39.988-26.705C-1318.29,506.164-1322.046,494.024-1339.763,494.024Z" transform="translate(1410.103 -415.321)" fill="#d69956"/>
</svg>
