<?xml version="1.0" standalone="no"?>
<!DOCTYPE svg PUBLIC "-//W3C//DTD SVG 20010904//EN"
 "http://www.w3.org/TR/2001/REC-SVG-20010904/DTD/svg10.dtd">
<svg version="1.0" xmlns="http://www.w3.org/2000/svg"
 width="1128.000000pt" height="1128.000000pt" viewBox="0 0 1128.000000 1128.000000"
 preserveAspectRatio="xMidYMid meet">
<metadata>
Created by potrace 1.14, written by Peter Selinger 2001-2017
</metadata>
<g transform="translate(0.000000,1128.000000) scale(0.100000,-0.100000)"
fill="#000000" stroke="none">
<path d="M5445 9800 c-22 -4 -65 -10 -95 -14 -66 -7 -246 -50 -295 -70 -19 -8
-35 -12 -35 -9 0 3 -6 1 -12 -4 -7 -6 -30 -16 -51 -23 -59 -19 -233 -107 -309
-156 -38 -24 -73 -44 -78 -44 -5 0 -13 -6 -17 -13 -4 -7 -24 -24 -43 -37 -113
-79 -400 -379 -400 -418 0 -6 -4 -12 -8 -14 -4 -1 -17 -19 -29 -38 -19 -31
-20 -37 -7 -55 15 -20 21 -28 86 -115 18 -25 54 -74 78 -110 25 -36 48 -66 53
-68 4 -2 7 -10 7 -17 0 -7 4 -15 8 -17 11 -4 192 -294 192 -307 0 -6 4 -11 9
-11 5 0 11 -8 14 -17 3 -10 20 -43 38 -73 44 -76 166 -317 213 -420 21 -47 45
-98 52 -114 8 -16 14 -35 14 -43 0 -7 5 -13 10 -13 6 0 10 -5 10 -11 0 -14 46
-133 71 -181 10 -21 17 -38 14 -38 -2 0 3 -17 12 -37 39 -93 155 -428 156
-450 0 -7 3 -13 7 -13 3 0 6 -8 7 -17 0 -10 15 -65 32 -123 18 -58 34 -116 37
-130 3 -14 14 -56 25 -95 11 -38 22 -80 25 -92 8 -43 13 -68 23 -108 10 -42
18 -79 28 -130 3 -16 6 -34 8 -40 1 -5 5 -26 9 -46 8 -36 8 -36 44 -29 21 5
55 11 77 15 64 11 335 14 395 4 30 -5 66 -11 80 -13 14 -2 30 -5 35 -6 24 -6
33 2 39 33 6 31 10 52 21 100 3 12 8 36 11 52 3 17 19 86 36 155 17 69 32 132
33 140 2 8 4 15 5 15 1 0 3 7 5 15 5 29 67 245 76 270 5 14 11 34 14 45 20 88
199 570 277 745 11 25 24 54 28 65 26 60 195 400 229 460 22 39 44 77 48 85
14 31 167 277 209 338 24 35 44 67 44 72 0 6 5 10 10 10 6 0 10 4 10 9 0 8
101 150 143 201 41 50 60 84 49 88 -7 2 -12 10 -12 17 0 8 -6 20 -13 27 -7 7
-30 38 -52 68 -22 30 -47 63 -55 72 -8 9 -35 42 -60 72 -25 30 -53 58 -62 61
-10 4 -18 13 -18 21 0 8 -3 14 -7 14 -5 0 -24 15 -43 33 -20 17 -55 48 -79 67
-24 19 -49 40 -55 45 -7 6 -19 15 -27 20 -9 6 -36 23 -60 40 -79 53 -250 146
-278 151 -8 2 -17 8 -21 14 -4 7 -11 11 -16 11 -9 -2 -109 32 -149 50 -37 16
-192 52 -280 65 -22 3 -51 8 -65 11 -41 9 -382 11 -425 3z"/>
<path d="M2865 8619 c-38 -4 -86 -10 -105 -13 -19 -4 -47 -8 -62 -11 -47 -7
-171 -42 -218 -62 -8 -3 -19 -7 -25 -8 -25 -6 -137 -63 -205 -104 -151 -91
-315 -237 -411 -366 -24 -33 -48 -63 -54 -67 -5 -4 -7 -8 -3 -8 7 0 -30 -61
-54 -90 -7 -8 -12 -16 -10 -17 1 -2 -8 -24 -21 -51 -13 -26 -32 -69 -42 -97
-10 -27 -22 -54 -25 -60 -11 -16 -59 -216 -62 -260 l-3 -39 80 -29 c44 -16 89
-33 100 -37 19 -8 54 -21 65 -25 13 -5 50 -20 98 -41 29 -13 55 -24 58 -24 12
0 320 -152 335 -166 10 -9 24 -16 32 -18 8 -1 26 -9 40 -19 15 -9 31 -17 37
-17 5 0 10 -3 10 -7 0 -5 19 -17 43 -28 23 -11 44 -22 47 -25 3 -3 28 -19 55
-35 28 -15 52 -31 55 -35 3 -4 15 -10 28 -14 12 -4 22 -12 22 -17 0 -5 6 -9
13 -9 7 0 23 -9 34 -19 12 -11 24 -17 27 -14 3 4 6 1 6 -5 0 -7 7 -12 15 -12
8 0 15 -4 15 -10 0 -5 6 -10 14 -10 8 0 16 -3 18 -7 2 -5 30 -26 63 -48 90
-59 210 -147 213 -157 2 -4 10 -8 17 -8 7 0 15 -3 17 -7 2 -5 41 -37 88 -73
86 -65 113 -87 134 -105 6 -6 36 -30 66 -55 30 -25 60 -49 66 -55 6 -5 37 -32
70 -60 157 -135 398 -366 564 -541 110 -116 225 -244 228 -255 7 -19 28 -8 50
26 12 19 22 40 22 45 0 6 4 9 9 5 5 -3 12 3 15 12 16 46 249 277 316 313 18
10 21 18 17 48 -4 29 -45 208 -62 267 -1 6 -3 13 -4 17 -1 4 -7 22 -12 40 -6
18 -19 65 -30 103 -11 39 -22 77 -26 85 -3 8 -7 20 -8 25 -1 6 -3 13 -5 18 -1
4 -4 12 -5 17 -1 6 -3 11 -5 13 -1 1 -3 9 -5 17 -8 37 -108 316 -117 328 -6 6
-8 12 -4 12 3 0 -5 24 -18 54 -13 30 -22 57 -18 60 3 3 0 6 -6 6 -7 0 -11 3
-10 8 1 7 -4 22 -32 87 -10 22 -32 74 -50 115 -83 193 -301 619 -322 628 -4 2
-8 8 -8 14 0 11 -87 152 -153 248 -20 30 -43 63 -50 74 -20 31 -200 271 -206
276 -3 3 -31 37 -62 75 -62 77 -118 140 -128 141 -3 0 -13 3 -21 7 -20 8 -148
37 -185 42 -123 17 -257 23 -350 14z"/>
<path d="M8207 8624 c-1 -1 -27 -5 -57 -8 -30 -3 -67 -8 -82 -11 -16 -3 -38
-7 -50 -9 -13 -2 -54 -12 -93 -22 -81 -20 -85 -23 -242 -219 -147 -184 -138
-171 -270 -369 -52 -78 -97 -146 -101 -152 -19 -28 -45 -72 -145 -249 -33 -60
-201 -399 -198 -403 0 -1 -12 -28 -27 -60 -16 -31 -59 -131 -94 -222 -65 -162
-80 -200 -83 -210 -1 -3 -5 -12 -8 -20 -9 -19 -118 -350 -122 -370 -2 -8 -14
-49 -25 -90 -12 -41 -23 -82 -25 -90 -2 -8 -14 -53 -26 -100 -53 -209 -54
-219 -29 -238 120 -97 165 -137 223 -202 89 -99 101 -114 138 -171 l31 -49 36
42 c69 77 83 93 175 192 196 211 504 506 659 631 15 12 131 108 150 124 7 6
38 30 68 53 30 24 57 45 60 48 3 3 23 19 45 36 22 16 44 32 50 37 97 73 342
247 350 247 2 0 38 23 79 50 42 28 80 50 86 50 5 0 10 5 10 10 0 6 4 10 9 10
5 0 56 28 113 62 167 100 517 274 541 269 4 0 7 3 7 7 0 5 6 9 13 9 6 0 45 15
86 33 41 18 82 34 90 35 9 2 16 4 16 5 0 1 7 3 15 5 8 2 42 14 76 27 49 19 61
27 58 43 -16 120 -24 154 -61 264 -30 92 -76 191 -131 286 -83 144 -265 337
-414 437 -91 62 -258 150 -308 163 -3 0 -34 10 -70 22 -57 19 -119 35 -135 34
-2 0 -18 4 -35 9 -52 15 -342 34 -353 24z"/>
<path d="M1057 6743 c-2 -1 -23 -5 -48 -7 -62 -8 -98 -15 -139 -28 -19 -7 -37
-13 -40 -13 -44 -11 -67 -20 -77 -28 -7 -5 -13 -7 -13 -4 0 8 -175 -82 -224
-115 -37 -24 -158 -129 -194 -167 -50 -52 -162 -204 -162 -219 0 -5 -7 -15
-15 -22 -8 -7 -15 -20 -15 -30 0 -10 -7 -23 -15 -30 -8 -6 -14 -15 -13 -18 0
-4 -4 -20 -11 -37 -6 -16 -11 -34 -10 -39 0 -5 -3 -12 -8 -15 -9 -6 -39 -103
-48 -156 -3 -16 -9 -48 -12 -70 -9 -51 -10 -246 -1 -305 3 -25 11 -57 17 -71
5 -15 8 -29 5 -32 -4 -4 0 -16 32 -94 34 -81 51 -113 96 -181 87 -129 219
-247 353 -314 64 -32 180 -74 225 -81 19 -3 46 -8 60 -11 14 -2 57 -7 95 -10
127 -11 250 -24 250 -26 0 -1 20 -4 45 -6 25 -2 65 -9 90 -14 25 -5 61 -12 80
-15 58 -9 84 -14 110 -20 14 -4 38 -9 54 -11 16 -3 40 -10 54 -15 14 -5 27 -7
30 -4 3 2 11 0 19 -6 7 -6 13 -8 13 -4 0 4 7 2 15 -5 8 -7 15 -10 15 -7 0 3
30 -3 68 -14 37 -11 74 -22 82 -24 23 -6 187 -61 260 -88 211 -78 479 -207
670 -321 25 -15 53 -29 63 -33 9 -3 17 -9 17 -13 0 -4 14 -13 30 -20 17 -7 30
-16 30 -21 0 -5 7 -9 15 -9 8 0 15 -4 15 -10 0 -5 4 -10 10 -10 5 0 39 -20 76
-45 62 -43 220 -124 253 -130 9 -2 16 -4 16 -5 0 -5 152 -40 205 -46 62 -8
266 -8 320 -1 110 16 203 37 269 62 35 13 74 26 78 27 8 0 125 65 126 68 0 3
-19 54 -42 114 -24 60 -44 118 -46 128 -2 11 -7 28 -10 38 -11 36 -35 148 -34
158 1 4 0 9 -1 12 -8 20 -11 77 -13 231 l-2 175 -35 43 c-40 48 -48 58 -180
201 -191 208 -413 420 -630 603 -47 40 -90 77 -96 82 -6 6 -26 21 -44 35 -18
14 -38 30 -44 35 -6 6 -40 33 -76 60 -36 28 -66 53 -68 58 -2 4 -9 7 -14 7 -6
0 -18 7 -27 15 -26 26 -181 135 -190 135 -5 0 -11 3 -13 8 -5 10 -66 52 -77
52 -5 0 -11 4 -13 8 -4 11 -97 72 -109 72 -5 0 -9 5 -9 10 0 6 -4 10 -8 10 -5
0 -62 32 -128 72 -119 72 -471 254 -574 297 -64 27 -195 76 -260 97 -25 9 -52
17 -60 20 -8 3 -15 5 -15 4 0 -1 -13 4 -30 10 -16 7 -41 14 -55 16 -14 3 -36
9 -50 13 -27 10 -73 22 -105 27 -11 1 -31 6 -45 9 -27 7 -109 13 -113 8z"/>
<path d="M10120 6739 c-19 -5 -45 -11 -57 -13 -12 -2 -57 -14 -100 -26 -43
-12 -85 -23 -94 -25 -32 -7 -197 -64 -304 -106 -107 -42 -413 -191 -545 -265
-93 -53 -344 -209 -418 -261 -120 -84 -207 -147 -287 -206 -101 -77 -332 -263
-366 -297 -15 -14 -45 -41 -69 -60 -106 -88 -389 -365 -525 -515 -44 -48 -91
-100 -104 -114 -13 -14 -40 -46 -60 -70 l-36 -44 -1 -156 c-1 -143 -6 -226
-18 -284 -33 -153 -69 -273 -110 -358 -12 -26 -20 -52 -18 -58 7 -22 242 -116
337 -135 17 -4 41 -9 55 -11 90 -19 304 -25 405 -11 83 11 196 42 273 74 67
29 176 88 205 112 30 24 166 110 175 110 6 0 12 4 14 8 7 18 396 227 485 260
15 6 55 23 88 36 33 14 66 26 73 26 6 0 12 4 12 9 0 5 10 11 23 14 18 4 100
31 242 81 6 2 12 4 15 4 3 0 17 5 33 11 15 6 38 13 50 16 12 2 73 18 134 35
62 16 123 32 135 34 209 43 291 57 423 71 33 3 71 8 84 10 14 2 62 7 109 10
46 4 94 8 106 11 67 12 87 17 141 36 69 23 155 59 170 70 6 5 38 26 71 47 57
36 224 194 224 212 0 4 6 14 13 21 59 63 144 261 164 383 10 62 9 262 -2 334
-4 30 -16 84 -27 120 -10 37 -21 74 -23 83 -2 10 -26 64 -54 120 -85 176 -214
331 -361 436 -36 26 -67 49 -70 53 -20 24 -265 126 -348 144 -12 3 -32 7 -44
10 -27 6 -88 14 -143 19 -22 2 -56 0 -75 -5z"/>
<path d="M5505 5533 c-205 -45 -302 -87 -435 -186 -183 -137 -321 -363 -357
-586 -10 -58 -10 -265 -1 -311 4 -19 10 -50 13 -68 8 -43 48 -150 81 -213 19
-39 29 -49 42 -44 9 4 49 16 87 27 69 19 84 23 126 33 11 2 28 6 37 9 17 5 67
15 112 22 14 2 39 6 55 8 34 6 131 17 190 22 55 4 309 4 370 -1 210 -17 363
-46 554 -104 65 -20 81 -20 81 3 0 6 6 18 13 25 6 6 13 15 13 19 6 28 18 52
27 52 6 0 8 3 4 6 -3 4 0 23 8 43 50 130 67 337 38 486 -46 244 -188 462 -393
601 -65 44 -153 91 -197 104 -21 7 -67 21 -103 31 -48 15 -102 21 -205 23 -77
2 -149 2 -160 -1z"/>
<path d="M2456 3548 c29 -83 187 -393 234 -458 11 -16 20 -30 20 -33 0 -5 89
-140 107 -162 5 -5 19 -26 33 -45 52 -75 174 -222 246 -297 18 -18 30 -33 28
-33 -1 0 31 -33 73 -72 41 -40 93 -90 114 -110 21 -21 44 -38 49 -38 6 0 10
-4 10 -8 0 -13 203 -171 320 -250 146 -97 233 -148 370 -217 115 -58 252 -118
295 -131 6 -1 53 -19 105 -39 52 -20 102 -37 110 -39 8 -1 47 -12 85 -23 58
-18 97 -28 145 -38 3 -1 14 -4 25 -8 19 -6 48 -12 110 -23 49 -9 69 -13 90
-17 12 -3 48 -8 80 -12 33 -4 69 -9 80 -12 88 -18 608 -25 760 -10 140 14 212
23 270 33 17 3 44 7 60 9 17 2 30 4 30 5 0 2 17 6 59 14 80 15 145 30 166 39
8 3 51 15 95 27 44 11 87 23 95 27 8 3 20 7 25 9 100 25 434 174 585 261 110
63 303 189 336 218 6 5 22 17 34 25 12 8 28 20 34 25 6 6 31 26 56 45 25 18
56 44 70 57 14 12 54 48 89 80 113 102 260 255 336 348 17 21 38 46 48 58 44
51 188 249 200 275 5 12 14 22 19 22 4 0 8 4 8 10 0 5 20 41 45 80 25 39 45
73 45 76 0 3 8 18 19 32 16 24 48 86 146 284 13 25 21 49 18 52 -6 5 -66 -34
-71 -46 -2 -5 -7 -8 -12 -8 -5 0 -44 -24 -87 -52 -124 -84 -355 -215 -393
-224 -3 0 -23 -9 -45 -19 -56 -25 -163 -65 -205 -76 -19 -5 -39 -11 -45 -13
-5 -1 -19 -5 -30 -9 -11 -3 -36 -8 -55 -11 -19 -3 -46 -8 -59 -10 -115 -24
-338 -24 -454 0 -12 2 -37 7 -56 10 -31 5 -42 8 -88 18 -49 11 -153 42 -290
87 -84 28 -154 49 -156 47 -2 -2 -10 2 -18 8 -8 7 -30 15 -49 19 -19 4 -41 11
-50 15 -27 14 -257 81 -290 84 -9 1 -20 5 -25 8 -9 5 -82 21 -150 33 -11 2
-45 8 -75 14 -154 28 -260 36 -485 36 -180 0 -295 -6 -380 -19 -16 -3 -48 -7
-70 -10 -22 -3 -76 -12 -120 -21 -44 -9 -89 -18 -100 -20 -32 -6 -53 -12 -185
-50 -69 -20 -132 -38 -140 -40 -8 -2 -16 -4 -17 -5 -2 -2 -6 -3 -10 -4 -5 -1
-53 -17 -108 -36 -55 -19 -103 -33 -107 -32 -5 1 -8 -2 -8 -6 0 -5 -6 -9 -12
-9 -7 0 -62 -16 -123 -36 -229 -74 -423 -110 -590 -110 -68 0 -197 10 -235 18
-14 4 -36 8 -50 11 -14 3 -50 12 -80 20 -30 8 -62 16 -70 18 -8 2 -42 15 -75
27 -33 13 -62 24 -65 25 -12 3 -92 40 -171 79 -133 66 -326 182 -426 258 -28
20 -53 37 -56 37 -4 0 1 -19 9 -42z"/>
</g>
</svg>
