<svg id="Group_143" data-name="Group 143" xmlns="http://www.w3.org/2000/svg" width="27.942" height="24" viewBox="0 0 27.942 24">
  <path id="Path_129" data-name="Path 129" d="M1538.087,1471.851H1526.05a1.766,1.766,0,0,1-1.934-1.939q0-10.046,0-20.092a1.773,1.773,0,0,1,1.966-1.969h24.042a1.766,1.766,0,0,1,1.934,1.939q0,10.062,0,20.123a1.768,1.768,0,0,1-1.935,1.938Zm-11.975-5c.145-.172.237-.28.327-.389q3.7-4.473,7.4-8.946a1.407,1.407,0,0,1,2.376-.077c1.118,1.2,2.226,2.42,3.355,3.614a1.022,1.022,0,0,0,1.573.079c.372-.3.731-.617,1.1-.925a1.075,1.075,0,0,1,1.751.115q2.937,3.172,5.876,6.342c.046.049.1.093.192.182v-.271q-.007-7.905-.015-15.81c0-.625-.31-.919-.954-.919h-22.012c-.666,0-.969.305-.969.973q0,7.826,0,15.653Z" transform="translate(-1524.116 -1447.851)" fill="#24646d"/>
  <path id="Path_130" data-name="Path 130" d="M1817.607,1514.881a2.994,2.994,0,1,1-2.989-3A3,3,0,0,1,1817.607,1514.881Z" transform="translate(-1793.657 -1507.876)" fill="#24646d"/>
</svg>
