<svg xmlns="http://www.w3.org/2000/svg" width="159.457" height="166.518" viewBox="0 0 159.457 166.518">
  <g id="Group_170" data-name="Group 170" transform="translate(1556.24 -154.011)">
    <g id="Group_167" data-name="Group 167" transform="translate(-1556.24 270.011)">
      <g id="Group_166" data-name="Group 166" transform="translate(59.998 40.313)">
        <path id="Path_137" data-name="Path 137" d="M-1287.467,837.755v1.619h-4.293v2.732h3.44v1.561h-3.44v4.293h-2.038V837.755Z" transform="translate(1293.798 -837.755)" fill="#d69956"/>
        <path id="Path_138" data-name="Path 138" d="M-1255.218,846.3h-4.091l-.723,2.053h-2.154l3.758-10.089h2.327l3.744,10.089h-2.154Zm-.549-1.546-1.5-4.308-1.5,4.308Z" transform="translate(1269.412 -838.145)" fill="#d69956"/>
        <path id="Path_139" data-name="Path 139" d="M-1197.764,838.261V848.35h-2.024v-7.039l-2.587,7.039h-1.763l-2.587-7.01v7.01h-2.038V838.261h2.472l3.064,7.589,3.007-7.589Z" transform="translate(1228.204 -838.145)" fill="#d69956"/>
        <path id="Path_140" data-name="Path 140" d="M-1144,837.755V847.96h-2.038V837.755Z" transform="translate(1179.818 -837.755)" fill="#d69956"/>
        <path id="Path_141" data-name="Path 141" d="M-1120.473,846.4h3.426v1.561h-5.464V837.755h2.038Z" transform="translate(1161.67 -837.755)" fill="#d69956"/>
        <path id="Path_142" data-name="Path 142" d="M-1088.612,837.755l-3.455,6.635v3.57h-2.052v-3.57l-3.469-6.635h2.342l2.168,4.466,2.168-4.466Z" transform="translate(1142.444 -837.755)" fill="#d69956"/>
        <path id="Path_143" data-name="Path 143" d="M-1052,873.1v2.125h-2.2V873.1Z" transform="translate(1108.971 -865.02)" fill="#d69956"/>
        <path id="Path_144" data-name="Path 144" d="M-1022.322,847.96h-2.038l-4.568-6.938v6.938h-2.038V837.755h2.038l4.568,7v-7h2.038Z" transform="translate(1091.053 -837.755)" fill="#d69956"/>
        <path id="Path_145" data-name="Path 145" d="M-976.5,839.374v2.645h3.614v1.561H-976.5v2.746h4.047v1.633h-6.085V837.755h6.085v1.619Z" transform="translate(1050.611 -837.755)" fill="#d69956"/>
        <path id="Path_146" data-name="Path 146" d="M-934.5,837.755v1.619h-2.819v8.586h-2.038v-8.586h-2.8v-1.619Z" transform="translate(1022.553 -837.755)" fill="#d69956"/>
      </g>
      <path id="Path_147" data-name="Path 147" d="M-954.133,734.679c-6.541,0-11.862-5.577-11.862-12.432s5.321-12.432,11.862-12.432a9.273,9.273,0,0,1,6.468,2.346l.976,1.04v-2.591h5.212v23.516h-5.212v-2.673l-.955.915A9.9,9.9,0,0,1-954.133,734.679Zm0-19.67c-3.676,0-6.668,3.247-6.668,7.238s2.991,7.238,6.668,7.238,6.667-3.247,6.667-7.238S-950.457,715.009-954.133,715.009Z" transform="translate(1100.933 -698.75)" fill="#f9f7f2"/>
      <path id="Path_148" data-name="Path 148" d="M-1015.684,735.993V712.476h4.63v2.706l.95-.887a8.564,8.564,0,0,1,5.607-2.06v5.438a8.543,8.543,0,0,0-2.03.347,4.772,4.772,0,0,0-1.866,1.013,4.36,4.36,0,0,0-1.13,1.716,8.247,8.247,0,0,0-.477,2.458c-.012.229-.02.459-.019.694l.009,5.891c.009,2.243.007,4.279-.007,6.2Z" transform="translate(1139.263 -700.618)" fill="#f9f7f2"/>
      <path id="Path_149" data-name="Path 149" d="M-1399.855,690.092l3.638-5.7h5.521l-3.638,5.7Z" transform="translate(1435.607 -679.137)" fill="#f9f7f2"/>
      <path id="Path_150" data-name="Path 150" d="M-1232.262,696.794V686.175c0-4.241-2.985-7.692-6.654-7.692-3.644,0-6.5,3.379-6.5,7.692v10.619h-5.731V661.419h5.731v13.663l.848-.49a11.313,11.313,0,0,1,5.651-1.53c6.658,0,12.074,5.882,12.074,13.113v10.619Z" transform="translate(1320.895 -661.419)" fill="#f9f7f2"/>
      <path id="Path_151" data-name="Path 151" d="M-1537.17,696.794v-6.553c0-4.242-3.018-7.692-6.729-7.692-3.2,0-6.611,1.665-6.611,6.337v7.908h-5.731V661.419h5.731v18.053l.9-.666a9.624,9.624,0,0,1,4.99-1.653l.3-.019,5.47-9.273h6.419l-6.535,10.384.528.288a13.212,13.212,0,0,1,6.688,11.707v6.553Z" transform="translate(1556.24 -661.419)" fill="#f9f7f2"/>
      <path id="Path_152" data-name="Path 152" d="M-1312.048,696.786a12.743,12.743,0,0,1-5.35-1.174,9.8,9.8,0,0,1-2.733-1.95,10.053,10.053,0,0,1-1.894-2.757,14.021,14.021,0,0,1-1.191-5.881l-.007-6.361h-2.383v-5.385h2.378v-.565c0-4.191,0-7.743.01-11.294h5.651c.015,3.832.013,7.675.01,11.294v.565h5.51v5.385h-5.517l-.005,6.358a8.622,8.622,0,0,0,.619,3.541,4.058,4.058,0,0,0,1.972,2.078,7.759,7.759,0,0,0,2.931.705Z" transform="translate(1378.332 -661.419)" fill="#f9f7f2"/>
      <path id="Path_153" data-name="Path 153" d="M-1122.491,734.239a12.61,12.61,0,0,1-12.759-12.426,12.61,12.61,0,0,1,12.759-12.426,12.779,12.779,0,0,1,11.306,6.662,11.683,11.683,0,0,1,.639,1.375l-16.133,10.744.943.416a7.994,7.994,0,0,0,3.246.686,7.822,7.822,0,0,0,6.736-3.7h5.425A12.707,12.707,0,0,1-1122.491,734.239Zm0-19.883a7.638,7.638,0,0,0-7.79,7.457,7.147,7.147,0,0,0,.281,1.956l.214.751,12.4-8.4-.709-.465A8,8,0,0,0-1122.491,714.356Z" transform="translate(1231.494 -698.421)" fill="#f9f7f2"/>
      <path id="Path_154" data-name="Path 154" d="M-1429.036,750.665a11.787,11.787,0,0,1-10.958-8.106h5.716a6.493,6.493,0,0,0,5.242,2.8c6.1,0,6.1-6.215,6.1-8.258v-1.719l-.853.508a11.154,11.154,0,0,1-5.7,1.585c-6.6,0-11.976-5.882-11.976-13.113v-11.07h5.421v11.07c0,4.241,2.941,7.692,6.556,7.692s6.555-3.451,6.555-7.692v-11.07h5.421V737.1c0,5.41-1.6,9.286-4.743,11.52A11.91,11.91,0,0,1-1429.036,750.665Z" transform="translate(1467.703 -701.432)" fill="#f9f7f2"/>
    </g>
    <g id="Group_169" data-name="Group 169" transform="translate(-1546.244 154.011)">
      <path id="Path_155" data-name="Path 155" d="M-1244.422,403a30.52,30.52,0,0,1,10.067,1.644,11.66,11.66,0,0,0,1.665-6,11.732,11.732,0,0,0-11.732-11.732,11.731,11.731,0,0,0-11.731,11.732,11.661,11.661,0,0,0,1.664,6A30.521,30.521,0,0,1-1244.422,403Z" transform="translate(1314.761 -333.668)" fill="#f9f7f2"/>
      <g id="Group_168" data-name="Group 168" transform="translate(0 0)">
        <path id="Path_156" data-name="Path 156" d="M-1141.008,219.741l-.017.019a65.6,65.6,0,0,0-10.307,15.81,84.491,84.491,0,0,0-6.23,18.232c-.01.045-.03.086-.042.13a19.016,19.016,0,0,1,5.211,5.454c1.406-1.635,2.9-3.26,4.509-4.895a98.349,98.349,0,0,1,10.175-8.993,79.6,79.6,0,0,1,11.561-7.45,55.268,55.268,0,0,1,8.616-3.645,17.837,17.837,0,0,0-17.708-15.719,17.77,17.77,0,0,0-5.651.92C-1140.928,219.65-1140.968,219.7-1141.008,219.741Z" transform="translate(1238.742 -203.9)" fill="#d69956"/>
        <path id="Path_157" data-name="Path 157" d="M-1418.737,238.047a79.6,79.6,0,0,1,11.563,7.451A98.32,98.32,0,0,1-1397,254.492c1.61,1.635,3.1,3.26,4.509,4.895a19.015,19.015,0,0,1,5.228-5.466c-.009-.035-.024-.066-.031-.1a84.612,84.612,0,0,0-6.247-18.254,65.6,65.6,0,0,0-10.317-15.8c-.041-.045-.069-.1-.108-.145a17.767,17.767,0,0,0-5.677-.93,17.837,17.837,0,0,0-17.708,15.719A55.277,55.277,0,0,1-1418.737,238.047Z" transform="translate(1446.821 -203.9)" fill="#d69956"/>
        <path id="Path_158" data-name="Path 158" d="M-1281.489,182.394a92.409,92.409,0,0,1,5.642,18.712,18.979,18.979,0,0,1,4.1-.45,18.975,18.975,0,0,1,4.076.445,92.419,92.419,0,0,1,5.653-18.711,74.449,74.449,0,0,1,10.1-17.351,23.326,23.326,0,0,0-19.83-11.029,23.325,23.325,0,0,0-19.83,11.03A74.429,74.429,0,0,1-1281.489,182.394Z" transform="translate(1342.088 -154.011)" fill="#d69956"/>
        <path id="Path_159" data-name="Path 159" d="M-1461.1,348.482a19.083,19.083,0,0,1,.129-2.178,86.268,86.268,0,0,0-6.99-7.415,90.243,90.243,0,0,0-9.665-7.948,72.056,72.056,0,0,0-10.59-6.309,42.227,42.227,0,0,0-10.34-3.51,14.66,14.66,0,0,0-13.964,14.637q0,.067,0,.134a11.79,11.79,0,0,0,11.024,11.43,52.952,52.952,0,0,1,26.481,9.268,13.442,13.442,0,0,0,7.831,2.353,15.879,15.879,0,0,0,8.048-2.065A18.836,18.836,0,0,1-1461.1,348.482Z" transform="translate(1512.516 -282.917)" fill="#d69956"/>
        <path id="Path_160" data-name="Path 160" d="M-1091.255,321.121a42.239,42.239,0,0,0-10.341,3.51,72.192,72.192,0,0,0-10.589,6.309,90.3,90.3,0,0,0-9.666,7.948,86.234,86.234,0,0,0-6.99,7.415,19.055,19.055,0,0,1,.129,2.178,18.833,18.833,0,0,1-1.965,8.4,15.881,15.881,0,0,0,8.049,2.065,13.441,13.441,0,0,0,7.831-2.353,52.953,52.953,0,0,1,26.481-9.268,11.79,11.79,0,0,0,11.024-11.43q0-.067,0-.134A14.66,14.66,0,0,0-1091.255,321.121Z" transform="translate(1217.971 -282.917)" fill="#d69956"/>
      </g>
      <path id="Path_161" data-name="Path 161" d="M-1339.763,494.024c-17.717,0-21.473,12.141-39.988-1.259a42.369,42.369,0,0,0,39.988,26.705c19.809,0,33.851-12.572,39.988-26.705C-1318.29,506.164-1322.046,494.024-1339.763,494.024Z" transform="translate(1410.103 -415.321)" fill="#d69956"/>
    </g>
  </g>
</svg>
