<svg id="Main_Logo" data-name="Main Logo" xmlns="http://www.w3.org/2000/svg" width="128" height="29.173" viewBox="0 0 128 29.173">
  <g id="MAIN_LOGO-2" data-name="MAIN LOGO">
    <g id="Group_57" data-name="Group 57" transform="translate(44.514 3.213)">
      <g id="Group_56" data-name="Group 56" transform="translate(31.841 20.887)">
        <path id="Path_80" data-name="Path 80" d="M724.981,1113.5v.976H722.9v1.112h1.607v.932H722.9v2.052h-1.227V1113.5Z" transform="translate(-721.673 -1113.497)"/>
        <path id="Path_81" data-name="Path 81" d="M740,1117.746h-1.9l-.316.926h-1.292l1.858-5.037h1.413l1.859,5.037h-1.306Zm-.316-.933-.631-1.866-.639,1.866Z" transform="translate(-732.635 -1113.599)"/>
        <path id="Path_82" data-name="Path 82" d="M766.476,1113.635v5.037h-1.227v-3.15l-1.09,3.15H763.1l-1.1-3.157v3.157h-1.227v-5.037h1.5l1.37,3.509,1.342-3.509Z" transform="translate(-750.595 -1113.599)"/>
        <path id="Path_83" data-name="Path 83" d="M790.369,1113.5v5.073h-1.227V1113.5Z" transform="translate(-771.581 -1113.497)"/>
        <path id="Path_84" data-name="Path 84" d="M801.525,1117.63h1.636v.939H800.3V1113.5h1.227Z" transform="translate(-779.832 -1113.497)"/>
        <path id="Path_85" data-name="Path 85" d="M817.171,1113.5l-1.758,3.387v1.686h-1.235v-1.686l-1.758-3.387h1.406l.976,2.067.976-2.067Z" transform="translate(-788.8 -1113.497)"/>
        <path id="Path_86" data-name="Path 86" d="M833.872,1128.272v1.227H832.6v-1.227Z" transform="translate(-803.728 -1124.426)"/>
        <path id="Path_87" data-name="Path 87" d="M848.053,1118.57h-1.227l-2.052-3.114v3.114h-1.227V1113.5h1.227l2.052,3.142V1113.5h1.227Z" transform="translate(-811.824 -1113.497)"/>
        <path id="Path_88" data-name="Path 88" d="M868.541,1114.473v1.062h1.715v.926h-1.715v1.126h1.93v.983h-3.157V1113.5h3.157v.976Z" transform="translate(-829.405 -1113.497)"/>
        <path id="Path_89" data-name="Path 89" d="M887.773,1113.5v.976H886.4v4.1h-1.234v-4.1H883.8v-.976Z" transform="translate(-841.598 -1113.497)"/>
      </g>
      <path id="Path_90" data-name="Path 90" d="M876.977,1068.525a6.517,6.517,0,0,1,0-13.019,4.856,4.856,0,0,1,3.387,1.228l.511.544v-1.356H883.6v12.312h-2.729v-1.4l-.5.479A5.183,5.183,0,0,1,876.977,1068.525Zm0-10.3a3.8,3.8,0,1,0,3.491,3.789A3.653,3.653,0,0,0,876.977,1058.226Z" transform="translate(-800.118 -1049.713)"/>
      <path id="Path_91" data-name="Path 91" d="M847.917,1069.057v-12.312h2.425v1.417l.5-.465a4.483,4.483,0,0,1,2.935-1.078v2.847a4.432,4.432,0,0,0-1.062.181,2.49,2.49,0,0,0-.977.53,2.278,2.278,0,0,0-.592.9,4.324,4.324,0,0,0-.25,1.287c-.006.12-.01.24-.01.364l0,3.084c0,1.175,0,2.24,0,3.247Z" transform="translate(-783.216 -1050.537)"/>
      <path id="Path_92" data-name="Path 92" d="M671.259,1046.8l1.9-2.986h2.891l-1.9,2.986Z" transform="translate(-652.541 -1041.065)"/>
      <path id="Path_93" data-name="Path 93" d="M749.529,1051.773v-5.559a3.79,3.79,0,0,0-3.484-4.027c-1.908,0-3.4,1.769-3.4,4.027v5.559h-3v-18.521h3v7.153l.444-.256a5.923,5.923,0,0,1,2.959-.8,6.618,6.618,0,0,1,6.322,6.865v5.559Z" transform="translate(-703.124 -1033.252)"/>
      <path id="Path_94" data-name="Path 94" d="M609.331,1051.773v-3.431a3.8,3.8,0,0,0-3.523-4.027,3.159,3.159,0,0,0-3.461,3.318v4.14h-3v-18.521h3v9.451l.471-.348a5.036,5.036,0,0,1,2.612-.865l.156-.01,2.864-4.855h3.361l-3.421,5.436.276.151a6.916,6.916,0,0,1,3.5,6.129v3.431Z" transform="translate(-599.347 -1033.252)"/>
      <path id="Path_95" data-name="Path 95" d="M712.5,1051.769a6.662,6.662,0,0,1-2.8-.614,5.129,5.129,0,0,1-1.431-1.021,5.265,5.265,0,0,1-.992-1.444,7.34,7.34,0,0,1-.624-3.079l0-3.33H705.4v-2.82h1.245v-.3c0-2.195,0-4.054.005-5.913h2.958c.008,2.006.007,4.018,0,5.913v.3H712.5v2.82h-2.888l0,3.329a4.517,4.517,0,0,0,.324,1.854,2.124,2.124,0,0,0,1.032,1.088,4.068,4.068,0,0,0,1.535.369Z" transform="translate(-677.797 -1033.252)"/>
      <path id="Path_96" data-name="Path 96" d="M799.616,1068.321a6.508,6.508,0,1,1,0-13.011,6.691,6.691,0,0,1,5.919,3.488,6.128,6.128,0,0,1,.334.72l-8.447,5.625.494.217a4.181,4.181,0,0,0,1.7.359,4.1,4.1,0,0,0,3.527-1.938h2.84A6.653,6.653,0,0,1,799.616,1068.321Zm0-10.41a4,4,0,0,0-4.079,3.9,3.75,3.75,0,0,0,.147,1.024l.112.393,6.494-4.4-.371-.244A4.192,4.192,0,0,0,799.616,1057.911Z" transform="translate(-742.546 -1049.568)"/>
      <path id="Path_97" data-name="Path 97" d="M658.633,1076.672a6.171,6.171,0,0,1-5.737-4.244h2.992a3.4,3.4,0,0,0,2.745,1.465c3.2,0,3.2-3.254,3.2-4.323v-.9l-.447.266a5.838,5.838,0,0,1-2.985.83c-3.458,0-6.27-3.08-6.27-6.865v-5.8h2.838v5.8c0,2.221,1.54,4.027,3.432,4.027s3.432-1.807,3.432-4.027v-5.8h2.838v12.466c0,2.832-.836,4.862-2.483,6.031A6.235,6.235,0,0,1,658.633,1076.672Z" transform="translate(-638.388 -1050.896)"/>
    </g>
    <g id="Group_61" data-name="Group 61">
      <path id="Path_98" data-name="Path 98" d="M494.365,1082.416a8.509,8.509,0,0,1,2.806.458,3.27,3.27,0,1,0-5.612,0A8.509,8.509,0,0,1,494.365,1082.416Z" transform="translate(-474.758 -1063.089)"/>
      <g id="Group_60" data-name="Group 60">
        <g id="Group_59" data-name="Group 59">
          <path id="Path_99" data-name="Path 99" d="M519.848,1037.039l0,.005a18.265,18.265,0,0,0-2.873,4.407,23.535,23.535,0,0,0-1.737,5.082c0,.013-.009.024-.012.037a5.3,5.3,0,0,1,1.453,1.521c.392-.456.808-.909,1.257-1.365a27.349,27.349,0,0,1,2.836-2.507,22.194,22.194,0,0,1,3.223-2.077,15.372,15.372,0,0,1,2.4-1.016A4.969,4.969,0,0,0,519.88,1037Z" transform="translate(-492.605 -1032.623)"/>
          <path id="Path_100" data-name="Path 100" d="M451.582,1042.141a22.175,22.175,0,0,1,3.223,2.077,27.363,27.363,0,0,1,2.836,2.507c.449.456.865.908,1.257,1.365a5.289,5.289,0,0,1,1.457-1.524c0-.01-.007-.019-.009-.028a23.571,23.571,0,0,0-1.741-5.089,18.28,18.28,0,0,0-2.876-4.406c-.012-.013-.019-.028-.03-.041a4.969,4.969,0,0,0-6.518,4.122A15.369,15.369,0,0,1,451.582,1042.141Z" transform="translate(-443.754 -1032.623)"/>
          <g id="Group_58" data-name="Group 58" transform="translate(14.079)">
            <path id="Path_101" data-name="Path 101" d="M485.234,1028.822a25.768,25.768,0,0,1,1.573,5.217,5.258,5.258,0,0,1,2.278,0,25.771,25.771,0,0,1,1.576-5.216,20.736,20.736,0,0,1,2.816-4.836,6.506,6.506,0,0,0-11.055,0A20.736,20.736,0,0,1,485.234,1028.822Z" transform="translate(-482.421 -1020.91)"/>
          </g>
          <path id="Path_102" data-name="Path 102" d="M442.664,1069.45a5.3,5.3,0,0,1,.036-.607,24.127,24.127,0,0,0-1.949-2.067,25.212,25.212,0,0,0-2.694-2.215,20.038,20.038,0,0,0-2.952-1.759,11.768,11.768,0,0,0-2.882-.978,4.087,4.087,0,0,0-3.892,4.08c0,.012,0,.025,0,.037a3.287,3.287,0,0,0,3.073,3.187,14.763,14.763,0,0,1,7.382,2.583,3.748,3.748,0,0,0,2.183.656,4.422,4.422,0,0,0,2.243-.576A5.252,5.252,0,0,1,442.664,1069.45Z" transform="translate(-428.33 -1051.174)"/>
          <path id="Path_103" data-name="Path 103" d="M532.8,1061.823a11.775,11.775,0,0,0-2.883.978,20.077,20.077,0,0,0-2.951,1.759,25.2,25.2,0,0,0-2.694,2.215,24.2,24.2,0,0,0-1.948,2.067,5.333,5.333,0,0,1,.036.607,5.248,5.248,0,0,1-.548,2.34,4.424,4.424,0,0,0,2.244.576,3.749,3.749,0,0,0,2.183-.656,14.762,14.762,0,0,1,7.382-2.583,3.287,3.287,0,0,0,3.073-3.187c0-.012,0-.025,0-.037A4.086,4.086,0,0,0,532.8,1061.823Z" transform="translate(-497.481 -1051.174)"/>
        </g>
      </g>
      <path id="Path_104" data-name="Path 104" d="M471.981,1104.2c-4.939,0-5.986,3.385-11.146-.351a11.81,11.81,0,0,0,11.146,7.444,12.089,12.089,0,0,0,11.146-7.444C477.967,1107.581,476.92,1104.2,471.981,1104.2Z" transform="translate(-452.374 -1082.258)"/>
    </g>
  </g>
</svg>
