<svg id="Twitter" xmlns="http://www.w3.org/2000/svg" width="19.726" height="16" viewBox="0 0 19.726 16">
  <path id="Path_2" data-name="Path 2" d="M44.247,18A11.4,11.4,0,0,0,55.753,6.493V5.945a8.908,8.908,0,0,0,1.973-2.082,9.1,9.1,0,0,1-2.3.658,4.264,4.264,0,0,0,1.753-2.192,10.052,10.052,0,0,1-2.521.986A3.914,3.914,0,0,0,51.7,2a4.117,4.117,0,0,0-4.055,4.055,2.136,2.136,0,0,0,.11.877,11.33,11.33,0,0,1-8.329-4.274,4.2,4.2,0,0,0-.548,2.082,4.354,4.354,0,0,0,1.753,3.4,3.694,3.694,0,0,1-1.863-.548h0a4.005,4.005,0,0,0,3.288,3.945,3.378,3.378,0,0,1-1.1.11,1.865,1.865,0,0,1-.767-.11,4.152,4.152,0,0,0,3.836,2.849,8.274,8.274,0,0,1-5.041,1.753,3.034,3.034,0,0,1-.986-.11A10.344,10.344,0,0,0,44.247,18" transform="translate(-38 -2)" fill="#24646D" fill-rule="evenodd"/>
</svg>
